<<<<<<< HEAD
ffmpeg version 2025-06-28-git-cfd1f81e7d-full_build-www.gyan.dev Copyright (c) 2000-2025 the FFmpeg developers
  built with gcc 15.1.0 (Rev4, Built by MSYS2 project)
  configuration: --enable-gpl --enable-version3 --enable-static --disable-w32threads --disable-autodetect --enable-fontconfig --enable-iconv --enable-gnutls --enable-lcms2 --enable-libxml2 --enable-gmp --enable-bzlib --enable-lzma --enable-libsnappy --enable-zlib --enable-librist --enable-libsrt --enable-libssh --enable-libzmq --enable-avisynth --enable-libbluray --enable-libcaca --enable-libdvdnav --enable-libdvdread --enable-sdl2 --enable-libaribb24 --enable-libaribcaption --enable-libdav1d --enable-libdavs2 --enable-libopenjpeg --enable-libquirc --enable-libuavs3d --enable-libxevd --enable-libzvbi --enable-liboapv --enable-libqrencode --enable-librav1e --enable-libsvtav1 --enable-libvvenc --enable-libwebp --enable-libx264 --enable-libx265 --enable-libxavs2 --enable-libxeve --enable-libxvid --enable-libaom --enable-libjxl --enable-libvpx --enable-mediafoundation --enable-libass --enable-frei0r --enable-libfreetype --enable-libfribidi --enable-libharfbuzz --enable-liblensfun --enable-libvidstab --enable-libvmaf --enable-libzimg --enable-amf --enable-cuda-llvm --enable-cuvid --enable-dxva2 --enable-d3d11va --enable-d3d12va --enable-ffnvcodec --enable-libvpl --enable-nvdec --enable-nvenc --enable-vaapi --enable-libshaderc --enable-vulkan --enable-libplacebo --enable-opencl --enable-libcdio --enable-openal --enable-libgme --enable-libmodplug --enable-libopenmpt --enable-libopencore-amrwb --enable-libmp3lame --enable-libshine --enable-libtheora --enable-libtwolame --enable-libvo-amrwbenc --enable-libcodec2 --enable-libilbc --enable-libgsm --enable-liblc3 --enable-libopencore-amrnb --enable-libopus --enable-libspeex --enable-libvorbis --enable-ladspa --enable-libbs2b --enable-libflite --enable-libmysofa --enable-librubberband --enable-libsoxr --enable-chromaprint
  libavutil      60.  3.100 / 60.  3.100
  libavcodec     62.  4.100 / 62.  4.100
  libavformat    62.  1.101 / 62.  1.101
  libavdevice    62.  0.100 / 62.  0.100
  libavfilter    11.  0.100 / 11.  0.100
  libswscale      9.  0.100 /  9.  0.100
  libswresample   6.  0.100 /  6.  0.100
Input #0, mov,mp4,m4a,3gp,3g2,mj2, from 'temp_21616.mp4':
=======
ffmpeg version 2025-10-12-git-0bc54cddb1-full_build-www.gyan.dev Copyright (c) 2000-2025 the FFmpeg developers
  built with gcc 15.2.0 (Rev8, Built by MSYS2 project)
  configuration: --enable-gpl --enable-version3 --enable-static --disable-w32threads --disable-autodetect --enable-fontconfig --enable-iconv --enable-gnutls --enable-lcms2 --enable-libxml2 --enable-gmp --enable-bzlib --enable-lzma --enable-libsnappy --enable-zlib --enable-librist --enable-libsrt --enable-libssh --enable-libzmq --enable-avisynth --enable-libbluray --enable-libcaca --enable-libdvdnav --enable-libdvdread --enable-sdl2 --enable-libaribb24 --enable-libaribcaption --enable-libdav1d --enable-libdavs2 --enable-libopenjpeg --enable-libquirc --enable-libuavs3d --enable-libxevd --enable-libzvbi --enable-liboapv --enable-libqrencode --enable-librav1e --enable-libsvtav1 --enable-libvvenc --enable-libwebp --enable-libx264 --enable-libx265 --enable-libxavs2 --enable-libxeve --enable-libxvid --enable-libaom --enable-libjxl --enable-libvpx --enable-mediafoundation --enable-libass --enable-frei0r --enable-libfreetype --enable-libfribidi --enable-libharfbuzz --enable-liblensfun --enable-libvidstab --enable-libvmaf --enable-libzimg --enable-amf --enable-cuda-llvm --enable-cuvid --enable-dxva2 --enable-d3d11va --enable-d3d12va --enable-ffnvcodec --enable-libvpl --enable-nvdec --enable-nvenc --enable-vaapi --enable-libshaderc --enable-vulkan --enable-libplacebo --enable-opencl --enable-libcdio --enable-openal --enable-libgme --enable-libmodplug --enable-libopenmpt --enable-libopencore-amrwb --enable-libmp3lame --enable-libshine --enable-libtheora --enable-libtwolame --enable-libvo-amrwbenc --enable-libcodec2 --enable-libilbc --enable-libgsm --enable-liblc3 --enable-libopencore-amrnb --enable-libopus --enable-libspeex --enable-libvorbis --enable-ladspa --enable-libbs2b --enable-libflite --enable-libmysofa --enable-librubberband --enable-libsoxr --enable-chromaprint --enable-whisper
  libavutil      60. 13.100 / 60. 13.100
  libavcodec     62. 16.100 / 62. 16.100
  libavformat    62.  6.101 / 62.  6.101
  libavdevice    62.  2.100 / 62.  2.100
  libavfilter    11.  9.100 / 11.  9.100
  libswscale      9.  3.100 /  9.  3.100
  libswresample   6.  2.100 /  6.  2.100
Input #0, mov,mp4,m4a,3gp,3g2,mj2, from 'temp_17304.mp4':
>>>>>>> 3ad8966 (limit error)
  Metadata:
    major_brand     : isom
    minor_version   : 512
    compatible_brands: isomiso2avc1mp41
<<<<<<< HEAD
    encoder         : Lavf62.1.101
  Duration: 00:01:20.02, start: 0.000000, bitrate: 6715 kb/s
  Stream #0:0[0x1](und): Video: h264 (Main) (avc1 / 0x31637661), yuv420p(progressive), 1080x1920 [SAR 1:1 DAR 9:16], 6594 kb/s, 60 fps, 60 tbr, 15360 tbn, start 0.021029 (default)
=======
    encoder         : Lavf62.6.101
  Duration: 00:01:03.34, start: 0.000000, bitrate: 12134 kb/s
  Stream #0:0[0x1](eng): Video: h264 (Main) (avc1 / 0x31637661), yuv420p(progressive), 1080x1920 [SAR 1:1 DAR 9:16], 11951 kb/s, 59.97 fps, 60 tbr, 15360 tbn, start 0.021029 (default)
>>>>>>> 3ad8966 (limit error)
    Metadata:
      handler_name    : ?Mainconcept Video Media Handler
      vendor_id       : [0][0][0][0]
<<<<<<< HEAD
      encoder         : Lavc62.4.100 h264_nvenc
  Stream #0:1[0x2](und): Audio: aac (LC) (mp4a / 0x6134706D), 48000 Hz, stereo, fltp, 110 kb/s (default)
=======
      encoder         : Lavc62.16.100 h264_nvenc
  Stream #0:1[0x2](eng): Audio: aac (LC) (mp4a / 0x6134706D), 48000 Hz, stereo, fltp, 174 kb/s (default)
>>>>>>> 3ad8966 (limit error)
    Metadata:
      handler_name    : #Mainconcept MP4 Sound Media Handler
      vendor_id       : [0][0][0][0]
[mp3 @ 0000018c127c80c0] Estimating duration from bitrate, this may be inaccurate
Input #1, mp3, from '//nasfmc/Ổ Sever Mới/Định/Satisfy ASMR/SHORT AI/render nhac\7.mp3':
  Metadata:
    date            : 2025-09-30 08:20
    id3v2_priv.XMP  : <?xpacket begin="\xef\xbb\xbf" id="W5M0MpCehiHzreSzNTczkc9d"?>\x0a<x:xmpmeta xmlns:x="adobe:ns:meta/" x:xmptk="Adobe XMP Core 7.1-c000 79.4d2f597, 2021/09/01-20:51:22        ">\x0a <rdf:RDF xmlns:rdf="http://www.w3.org/1999/02/22-rdf-syntax-ns#">\x0a  <rd
  Duration: 00:00:48.02, start: 0.000000, bitrate: 259 kb/s
  Stream #1:0: Audio: mp3 (mp3float), 44100 Hz, stereo, fltp, 256 kb/s
Stream mapping:
  Stream #0:1 (aac) -> amix
  Stream #1:0 (mp3float) -> volume:default
  Stream #0:0 -> #0:0 (copy)
  amix:default -> Stream #0:1 (aac)
Press [q] to stop, [?] for help
<<<<<<< HEAD
Output #0, mp4, to 'E:/ghep xong\45.mp4':
=======
Output #0, mp4, to 'F:/1\1.mp4':
>>>>>>> 3ad8966 (limit error)
  Metadata:
    major_brand     : isom
    minor_version   : 512
    compatible_brands: isomiso2avc1mp41
<<<<<<< HEAD
    encoder         : Lavf62.1.101
  Stream #0:0(und): Video: h264 (Main) (avc1 / 0x31637661), yuv420p(progressive), 1080x1920 [SAR 1:1 DAR 9:16], q=2-31, 6594 kb/s, 60 fps, 60 tbr, 15360 tbn (default)
=======
    encoder         : Lavf62.6.101
  Stream #0:0(eng): Video: h264 (Main) (avc1 / 0x31637661), yuv420p(progressive), 1080x1920 [SAR 1:1 DAR 9:16], q=2-31, 11951 kb/s, 59.97 fps, 60 tbr, 15360 tbn (default)
>>>>>>> 3ad8966 (limit error)
    Metadata:
      handler_name    : ?Mainconcept Video Media Handler
      vendor_id       : [0][0][0][0]
      encoder         : Lavc62.16.100 h264_nvenc
  Stream #0:1: Audio: aac (LC) (mp4a / 0x6134706D), 48000 Hz, stereo, fltp, 128 kb/s
    Metadata:
<<<<<<< HEAD
      encoder         : Lavc62.4.100 aac
frame=  907 fps=0.0 q=-1.0 size=   13056KiB time=00:00:15.18 bitrate=7041.5kbits/s speed=30.2x elapsed=0:00:00.50    frame= 2133 fps=2076 q=-1.0 size=   27392KiB time=00:00:35.62 bitrate=6298.5kbits/s speed=34.7x elapsed=0:00:01.02    frame= 3279 fps=2133 q=-1.0 size=   44544KiB time=00:00:54.69 bitrate=6671.2kbits/s speed=35.6x elapsed=0:00:01.53    frame= 4513 fps=2193 q=-1.0 size=   61440KiB time=00:01:15.24 bitrate=6689.2kbits/s speed=36.6x elapsed=0:00:02.05    [out#0/mp4 @ 00000197ce62eac0] video:64397KiB audio:1306KiB subtitle:0KiB other streams:0KiB global headers:0KiB muxing overhead: 0.192694%
frame= 4800 fps=2191 q=-1.0 Lsize=   65829KiB time=00:01:19.97 bitrate=6743.4kbits/s speed=36.5x elapsed=0:00:02.19    
[aac @ 00000197ce053bc0] Qavg: 635.631
=======
      encoder         : Lavc62.16.100 aac
frame=  887 fps=0.0 q=-1.0 size=   21504KiB time=00:00:14.80 bitrate=11898.5kbits/s speed=29.2x elapsed=0:00:00.50    frame= 2024 fps=1979 q=-1.0 size=   49408KiB time=00:00:33.83 bitrate=11962.6kbits/s speed=33.1x elapsed=0:00:01.02    frame= 3166 fps=2055 q=-1.0 size=   77824KiB time=00:00:52.86 bitrate=12060.0kbits/s speed=34.3x elapsed=0:00:01.54    [out#0/mp4 @ 0000018c127c8700] video:92366KiB audio:1036KiB subtitle:0KiB other streams:0KiB global headers:0KiB muxing overhead: 0.107323%
frame= 3797 fps=1993 q=-1.0 Lsize=   93502KiB time=00:01:03.28 bitrate=12104.0kbits/s speed=33.2x elapsed=0:00:01.90    
[aac @ 0000018c12449440] Qavg: 548.534
>>>>>>> 3ad8966 (limit error)
